<?xml version="1.0" encoding="UTF-8" standalone="no"?>
<svg
   xmlns:dc="http://purl.org/dc/elements/1.1/"
   xmlns:cc="http://creativecommons.org/ns#"
   xmlns:rdf="http://www.w3.org/1999/02/22-rdf-syntax-ns#"
   xmlns:svg="http://www.w3.org/2000/svg"
   xmlns="http://www.w3.org/2000/svg"
   xmlns:sodipodi="http://sodipodi.sourceforge.net/DTD/sodipodi-0.dtd"
   xmlns:inkscape="http://www.inkscape.org/namespaces/inkscape"
   version="1.1"
   id="svg2"
   xml:space="preserve"
   width="340.16"
   height="207.88"
   viewBox="0 0 340.16 207.88"
   sodipodi:docname="logo-msb-inkythuatso.ai"><metadata
     id="metadata8"><rdf:RDF><cc:Work
         rdf:about=""><dc:format>image/svg+xml</dc:format><dc:type
           rdf:resource="http://purl.org/dc/dcmitype/StillImage" /></cc:Work></rdf:RDF></metadata><defs
     id="defs6"><radialGradient
       fx="0"
       fy="0"
       cx="0"
       cy="0"
       r="1"
       gradientUnits="userSpaceOnUse"
       gradientTransform="matrix(22.390972,0,0,-22.390972,66.271675,87.656616)"
       spreadMethod="pad"
       id="radialGradient40"><stop
         style="stop-opacity:1;stop-color:#6f0000"
         offset="0"
         id="stop24" /><stop
         style="stop-opacity:1;stop-color:#6f0000"
         offset="0.0184049"
         id="stop26" /><stop
         style="stop-opacity:1;stop-color:#910d11"
         offset="0.3252"
         id="stop28" /><stop
         style="stop-opacity:1;stop-color:#a61519"
         offset="0.4457"
         id="stop30" /><stop
         style="stop-opacity:1;stop-color:#bc1b20"
         offset="0.5938"
         id="stop32" /><stop
         style="stop-opacity:1;stop-color:#cb1e24"
         offset="0.7384"
         id="stop34" /><stop
         style="stop-opacity:1;stop-color:#d52027"
         offset="0.8762"
         id="stop36" /><stop
         style="stop-opacity:1;stop-color:#da2128"
         offset="1"
         id="stop38" /></radialGradient><radialGradient
       fx="0"
       fy="0"
       cx="0"
       cy="0"
       r="1"
       gradientUnits="userSpaceOnUse"
       gradientTransform="matrix(19.962366,0,0,-19.962366,83.287392,74.1679)"
       spreadMethod="pad"
       id="radialGradient70"><stop
         style="stop-opacity:1;stop-color:#6f0000"
         offset="0"
         id="stop56" /><stop
         style="stop-opacity:1;stop-color:#6f0000"
         offset="0.0368098"
         id="stop58" /><stop
         style="stop-opacity:1;stop-color:#910d11"
         offset="0.3006"
         id="stop60" /><stop
         style="stop-opacity:1;stop-color:#a01317"
         offset="0.4172"
         id="stop62" /><stop
         style="stop-opacity:1;stop-color:#be1b21"
         offset="0.6776"
         id="stop64" /><stop
         style="stop-opacity:1;stop-color:#d11f26"
         offset="0.8806"
         id="stop66" /><stop
         style="stop-opacity:1;stop-color:#da2128"
         offset="1"
         id="stop68" /></radialGradient><radialGradient
       fx="0"
       fy="0"
       cx="0"
       cy="0"
       r="1"
       gradientUnits="userSpaceOnUse"
       gradientTransform="matrix(40.301083,0,0,-40.301083,73.315407,96.898102)"
       spreadMethod="pad"
       id="radialGradient92"><stop
         style="stop-opacity:1;stop-color:#da2128"
         offset="0"
         id="stop86" /><stop
         style="stop-opacity:1;stop-color:#da2128"
         offset="0.3558"
         id="stop88" /><stop
         style="stop-opacity:1;stop-color:#f37021"
         offset="1"
         id="stop90" /></radialGradient><radialGradient
       fx="0"
       fy="0"
       cx="0"
       cy="0"
       r="1"
       gradientUnits="userSpaceOnUse"
       gradientTransform="matrix(20.910555,0,0,-20.910555,35.043392,61.055)"
       spreadMethod="pad"
       id="radialGradient116"><stop
         style="stop-opacity:1;stop-color:#da2128"
         offset="0"
         id="stop108" /><stop
         style="stop-opacity:1;stop-color:#da2128"
         offset="0.3129"
         id="stop110" /><stop
         style="stop-opacity:1;stop-color:#910d11"
         offset="0.7914"
         id="stop112" /><stop
         style="stop-opacity:1;stop-color:#6f0000"
         offset="1"
         id="stop114" /></radialGradient><clipPath
       clipPathUnits="userSpaceOnUse"
       id="clipPath126"><path
         d="M 0,155.91 H 255.12 V 0 H 0 Z"
         id="path124" /></clipPath></defs><sodipodi:namedview
     pagecolor="#ffffff"
     bordercolor="#666666"
     borderopacity="1"
     objecttolerance="10"
     gridtolerance="10"
     guidetolerance="10"
     inkscape:pageopacity="0"
     inkscape:pageshadow="2"
     inkscape:window-width="640"
     inkscape:window-height="480"
     id="namedview4" /><g
     id="g10"
     inkscape:groupmode="layer"
     inkscape:label="logo-msb-inkythuatso"
     transform="matrix(1.3333333,0,0,-1.3333333,0,207.88)"><g
       id="g12"><g
         id="g14"><g
           id="g20"><g
             id="g22"><path
               d="m 40.015,90.857 c 0,-2.575 0.937,-4.916 2.458,-6.788 v 0 L 64.124,58.204 c 1.873,-2.34 4.799,-3.744 8.075,-3.744 v 0 c 5.852,0.117 10.533,4.799 10.533,10.651 v 0 c 0,2.574 -0.936,4.914 -2.457,6.786 v 0 L 58.624,97.645 c -1.873,2.34 -4.799,3.744 -8.075,3.744 v 0 c -5.735,0 -10.534,-4.681 -10.534,-10.532"
               style="fill:url(#radialGradient40);stroke:none"
               id="path42" /></g></g></g></g><g
       id="g44"><g
         id="g46"><g
           id="g52"><g
             id="g54"><path
               d="m 71.614,99.283 c -1.99,-1.521 -3.394,-3.745 -3.862,-6.085 v 0 L 62.135,68.153 62.017,67.451 C 61.315,64.525 61.9,61.247 63.889,58.673 v 0 c 3.512,-4.565 10.182,-5.5 14.747,-1.873 v 0 c 1.99,1.521 3.395,3.746 3.862,6.086 v 0 l 5.735,25.63 c 0.701,2.926 0.117,6.203 -1.873,8.778 v 0 c -2.054,2.739 -5.152,4.156 -8.306,4.156 v 0 c -2.235,0 -4.498,-0.711 -6.44,-2.167"
               style="fill:url(#radialGradient70);stroke:none"
               id="path72" /></g></g></g></g><g
       id="g74"><g
         id="g76"><g
           id="g82"><g
             id="g84"><path
               d="m 67.401,90.857 c 0,-2.575 0.936,-4.916 2.457,-6.788 v 0 L 91.51,58.204 c 1.872,-2.34 4.797,-3.744 8.075,-3.744 v 0 c 5.969,0.117 10.651,4.799 10.651,10.651 v 0 c 0,2.574 -0.937,4.914 -2.458,6.786 v 0 l -21.77,25.748 c -1.871,2.34 -4.797,3.744 -8.073,3.744 v 0 c -5.736,0 -10.534,-4.681 -10.534,-10.532"
               style="fill:url(#radialGradient92);stroke:none"
               id="path94" /></g></g></g></g><g
       id="g96"><g
         id="g98"><g
           id="g104"><g
             id="g106"><path
               d="m 29.833,65.111 c 0,-5.819 4.716,-10.534 10.533,-10.534 v 0 c 5.818,0 10.534,4.715 10.534,10.534 v 0 c 0,5.816 -4.716,10.531 -10.534,10.531 v 0 c -5.817,0 -10.533,-4.715 -10.533,-10.531"
               style="fill:url(#radialGradient116);stroke:none"
               id="path118" /></g></g></g></g><g
       id="g120"><g
         id="g122"
         clip-path="url(#clipPath126)"><g
           id="g128"
           transform="translate(213.2236,66.7481)"><path
             d="m 0,0 h -10.533 v 8.427 h 10.416 c 1.638,0 4.214,-1.17 4.214,-4.33 C 4.097,2.341 2.692,0 0,0 m -10.533,22.47 h 10.416 c 1.99,0 3.277,-1.756 3.277,-3.277 0,-1.989 -1.756,-3.276 -3.277,-3.276 H -10.533 Z M 8.895,12.054 8.661,12.288 8.895,12.522 c 1.638,1.99 2.458,4.447 2.341,7.022 -0.234,5.852 -5.502,10.299 -11.937,10.299 h -13.811 c -2.34,0 -4.095,-1.872 -4.095,-4.096 V -3.511 c 0,-2.341 1.872,-4.095 4.095,-4.095 h 13.694 c 3.393,0 6.552,1.169 9.011,3.393 2.457,2.224 3.862,5.15 3.862,8.31 0.117,3.043 -1.053,5.851 -3.16,7.957"
             style="fill:#000000;fill-opacity:1;fill-rule:nonzero;stroke:none"
             id="path130" /></g><g
           id="g132"
           transform="translate(177.9971,81.7281)"><path
             d="M 0,0 C -3.16,0.819 -6.904,1.872 -7.139,4.447 -7.256,6.203 -5.852,7.724 -3.511,8.075 1.17,8.66 5.267,5.969 7.49,5.383 c 2.224,-0.585 3.979,1.288 4.213,3.16 0.352,2.809 -2.457,4.331 -3.511,5.033 -1.755,1.053 -4.915,2.341 -9.596,2.341 -8.31,0 -14.044,-4.799 -14.044,-11.587 0,-3.745 1.404,-6.436 4.096,-8.427 5.266,-3.978 15.565,-3.51 15.565,-7.606 0,-3.628 -6.787,-5.968 -14.277,-1.053 -0.704,0.468 -1.405,0.819 -2.341,0.819 -1.99,0 -3.745,-1.638 -3.745,-3.745 0,-0.702 0.117,-1.287 0.468,-1.873 l -0.117,-0.116 0.117,0.116 c 0,-0.116 0.117,-0.116 0.117,-0.234 0.702,-1.053 1.638,-1.989 2.925,-2.692 1.872,-1.287 5.384,-2.809 10.651,-2.809 4.33,0 7.958,1.054 10.532,3.161 2.575,2.107 3.979,5.149 3.979,8.777 C 12.757,-4.33 6.555,-1.755 0,0"
             style="fill:#000000;fill-opacity:1;fill-rule:nonzero;stroke:none"
             id="path134" /></g><g
           id="g136"
           transform="translate(153.8877,96.7081)"><path
             d="m 0,0 h -2.574 c -1.405,0 -2.809,-0.819 -3.394,-2.106 l -8.661,-18.023 -8.66,18.023 C -23.991,-0.819 -25.278,0 -26.8,0 h -2.575 c -2.223,0 -4.096,-1.873 -4.096,-4.096 v -29.726 c 0,-2.926 3.16,-5.149 6.203,-3.394 1.17,0.585 1.872,1.872 1.872,3.159 v 17.673 l 7.256,-13.927 c 0.703,-1.404 2.107,-2.107 3.511,-2.107 1.404,0 2.809,0.703 3.512,2.107 l 7.256,13.927 v -17.673 c 0,-1.287 0.702,-2.574 1.873,-3.159 3.043,-1.638 6.202,0.585 6.202,3.394 V -4.096 C 4.214,-1.873 2.342,0 0,0"
             style="fill:#000000;fill-opacity:1;fill-rule:nonzero;stroke:none"
             id="path138" /></g></g></g></g></svg>
